<svg version="1.1" id="Layer_1" xmlns="http://www.w3.org/2000/svg" xmlns:xlink="http://www.w3.org/1999/xlink" x="0px" y="0px"
	 width="100%" viewBox="0 0 512 512" enable-background="new 0 0 512 512" xml:space="preserve">
<path fill="#000000" opacity="1.000000" stroke="none" 
	d="
M0.999997,175.000000 
	C1.000000,117.029503 1.000000,59.058998 1.000000,1.088498 
	C1.137083,1.058998 1.274165,1.003642 1.411248,1.003639 
	C171.824539,0.999979 342.237823,1.000000 513.000000,1.000000 
	C513.000000,58.687092 513.000000,116.374886 512.687500,174.830307 
	C511.917358,174.803909 511.382019,174.044220 511.013580,173.210754 
	C505.386871,160.480774 496.396912,151.943314 481.911194,149.567505 
	C443.141968,149.132584 404.588989,149.085831 366.024170,148.568085 
	C366.008881,138.769501 365.947632,129.441452 366.017700,120.114365 
	C366.092316,110.182503 373.070709,98.934647 383.525360,98.067368 
	C391.764252,97.383888 400.053864,97.232224 408.325500,97.046959 
	C415.630066,96.883362 422.329773,91.449295 423.004730,84.831451 
	C424.068634,74.400177 420.181396,68.569115 410.820129,66.642685 
	C404.161133,66.209610 397.779785,65.995338 391.400848,66.051949 
	C388.564178,66.077118 385.732391,66.648537 382.466003,66.980896 
	C379.915558,67.200172 377.767883,67.253967 375.684448,67.647728 
	C366.005524,69.477013 357.936554,74.311890 350.665955,80.975693 
	C343.589813,74.283096 335.850830,68.997795 326.444763,67.932037 
	C315.150726,66.652359 303.659760,65.679131 292.355835,66.332916 
	C281.688995,66.949860 277.475555,75.909218 278.138885,83.139687 
	C278.772736,90.048027 284.683777,97.829437 294.730194,97.083992 
	C300.853851,96.629616 307.048798,96.774467 313.193970,97.048607 
	C325.248718,97.586365 335.486603,105.817406 335.061615,118.924789 
	C334.738220,128.899490 334.961182,138.891907 334.479218,148.933472 
	C235.635925,148.993683 137.254471,149.028107 38.873070,148.967224 
	C23.643169,148.957794 8.128751,158.355957 2.940357,173.575974 
	C2.728050,174.198776 1.666096,174.531906 0.999997,175.000000 
z"/>
<path fill="#000000" opacity="1.000000" stroke="none" 
	d="
M513.000000,339.000000 
	C513.000000,396.970490 513.000000,454.940948 513.000000,512.911377 
	C512.862915,512.940918 512.725891,512.996338 512.588806,512.996338 
	C342.175598,513.000061 171.762390,513.000000 1.000000,513.000000 
	C1.000000,455.312897 1.000000,397.625122 1.311361,339.165039 
	C2.065944,338.854309 2.773341,339.247101 2.913929,339.787384 
	C6.953048,355.310059 25.514494,365.132690 38.843136,365.104492 
	C132.217392,364.907104 225.592270,364.997955 318.966949,365.005219 
	C324.290802,365.005646 329.614655,365.081879 334.962402,365.583008 
	C334.991211,375.875153 335.005798,385.707092 334.998444,395.539062 
	C334.990570,406.048676 329.019226,414.166412 318.466553,415.842407 
	C310.351166,417.131348 301.957245,416.975494 293.690613,416.922729 
	C283.973053,416.860687 279.091522,423.475067 278.154968,430.897034 
	C277.275116,437.870056 282.001251,445.971130 290.106140,447.004852 
	C296.643555,447.838684 303.301697,447.831512 309.911102,447.974487 
	C325.550018,448.312714 339.532867,444.017853 351.267151,433.030823 
	C360.248047,441.804779 370.458374,446.947968 383.180237,447.358826 
	C389.509277,447.792664 395.562988,448.019012 401.613281,447.948425 
	C404.781830,447.911469 407.944336,447.353394 411.482239,447.024841 
	C420.984528,444.326233 424.315247,439.063324 422.968170,428.975952 
	C422.134155,422.730713 414.988708,416.103821 407.666992,416.877380 
	C402.243500,417.450378 396.711182,416.996216 391.227325,416.994019 
	C375.382080,416.987671 366.005341,407.657196 366.003967,391.881317 
	C366.003204,382.907867 366.024536,373.934387 366.500916,364.978638 
	C403.683624,364.997650 440.401459,365.011475 477.119141,364.959686 
	C478.789215,364.957336 480.458435,364.362579 482.529510,364.026764 
	C496.615479,361.571167 505.519684,353.336853 511.040283,340.931732 
	C511.387451,340.151611 512.332886,339.637756 513.000000,339.000000 
z"/>
<path fill="#E0F4FF" opacity="1.000000" stroke="none" 
	d="
M334.938507,365.122864 
	C329.614655,365.081879 324.290802,365.005646 318.966949,365.005219 
	C225.592270,364.997955 132.217392,364.907104 38.843136,365.104492 
	C25.514494,365.132690 6.953048,355.310059 2.913929,339.787384 
	C2.773341,339.247101 2.065944,338.854309 1.311361,338.696411 
	C1.000000,284.645782 1.000000,230.291550 0.999997,175.468658 
	C1.666096,174.531906 2.728050,174.198776 2.940357,173.575974 
	C8.128751,158.355957 23.643169,148.957794 38.873070,148.967224 
	C137.254471,149.028107 235.635925,148.993683 334.824677,149.198944 
	C335.734161,150.393448 335.925598,151.379532 335.925812,152.365631 
	C335.940002,221.913589 335.944641,291.461548 335.897400,361.009491 
	C335.896484,362.380798 335.272064,363.751740 334.938507,365.122864 
M187.500000,302.000000 
	C215.659775,301.999756 243.819565,302.020233 271.979309,301.987244 
	C280.991211,301.976685 288.022369,295.277954 287.962738,286.918945 
	C287.902039,278.410095 281.069519,272.058472 271.874146,272.006500 
	C266.209045,271.974487 260.543640,272.000031 254.878357,272.000031 
	C192.393677,272.000061 129.908966,272.023743 67.424347,271.961151 
	C61.636322,271.955353 56.979458,273.984680 53.724762,278.649384 
	C50.167320,283.748016 49.901985,289.197632 53.243275,294.596802 
	C56.400112,299.697968 61.072765,302.011047 67.029297,302.008484 
	C106.852859,301.991333 146.676437,301.999817 187.500000,302.000000 
M215.500534,211.999390 
	C210.007812,212.001923 204.507919,211.826813 199.023987,212.047699 
	C190.299469,212.399109 182.244812,221.890915 184.205765,229.252213 
	C186.371170,237.381012 192.411758,241.984756 201.074478,241.992767 
	C224.543396,242.014450 248.012344,242.013626 271.481262,241.993332 
	C280.933716,241.985153 288.003479,235.493530 287.963104,226.944641 
	C287.921753,218.194031 281.115997,212.016342 271.427551,212.005737 
	C253.118469,211.985672 234.809372,211.999588 215.500534,211.999390 
M61.691280,212.710403 
	C52.790134,215.757553 50.205215,223.937363 51.122208,229.382965 
	C52.241806,236.031799 58.614006,241.909317 65.371284,241.942917 
	C90.200310,242.066345 115.030602,242.057388 139.859756,241.947845 
	C146.003403,241.920761 151.085571,238.100204 152.938492,232.834396 
	C156.936279,221.473053 150.266342,212.113037 137.907623,212.028137 
	C121.410858,211.914795 104.912552,211.956680 88.415222,212.016968 
	C79.763168,212.048584 71.111771,212.261673 61.691280,212.710403 
z"/>
<path fill="#BBDCFF" opacity="1.000000" stroke="none" 
	d="
M513.000000,338.531342 
	C512.332886,339.637756 511.387451,340.151611 511.040283,340.931732 
	C505.519684,353.336853 496.615479,361.571167 482.052795,364.012146 
	C442.837677,364.012604 404.500702,364.010742 366.093079,363.544434 
	C366.012939,293.044800 366.002777,223.009644 366.001068,152.974487 
	C366.001038,151.980026 366.107178,150.985580 366.621735,149.993805 
	C405.428925,149.982864 443.778168,149.969254 482.127380,149.955658 
	C496.396912,151.943314 505.386871,160.480774 511.013580,173.210754 
	C511.382019,174.044220 511.917358,174.803909 512.687500,175.298965 
	C513.000000,229.354233 513.000000,283.708466 513.000000,338.531342 
z"/>
<path fill="#47568C" opacity="1.000000" stroke="none" 
	d="
M334.962402,365.583008 
	C335.272064,363.751740 335.896484,362.380798 335.897400,361.009491 
	C335.944641,291.461548 335.940002,221.913589 335.925812,152.365631 
	C335.925598,151.379532 335.734161,150.393448 335.286530,149.141907 
	C334.961182,138.891907 334.738220,128.899490 335.061615,118.924789 
	C335.486603,105.817406 325.248718,97.586365 313.193970,97.048607 
	C307.048798,96.774467 300.853851,96.629616 294.730194,97.083992 
	C284.683777,97.829437 278.772736,90.048027 278.138885,83.139687 
	C277.475555,75.909218 281.688995,66.949860 292.355835,66.332916 
	C303.659760,65.679131 315.150726,66.652359 326.444763,67.932037 
	C335.850830,68.997795 343.589813,74.283096 350.678131,81.433983 
	C350.983093,198.989548 350.974976,315.927490 350.966888,432.865417 
	C339.532867,444.017853 325.550018,448.312714 309.911102,447.974487 
	C303.301697,447.831512 296.643555,447.838684 290.106140,447.004852 
	C282.001251,445.971130 277.275116,437.870056 278.154968,430.897034 
	C279.091522,423.475067 283.973053,416.860687 293.690613,416.922729 
	C301.957245,416.975494 310.351166,417.131348 318.466553,415.842407 
	C329.019226,414.166412 334.990570,406.048676 334.998444,395.539062 
	C335.005798,385.707092 334.991211,375.875153 334.962402,365.583008 
z"/>
<path fill="#2C3B73" opacity="1.000000" stroke="none" 
	d="
M351.267151,433.030823 
	C350.974976,315.927490 350.983093,198.989548 350.979065,81.593315 
	C357.936554,74.311890 366.005524,69.477013 375.684448,67.647728 
	C377.767883,67.253967 379.915558,67.200172 382.943176,66.990898 
	C392.934723,66.985260 402.016724,66.978500 411.098755,66.971748 
	C420.181396,68.569115 424.068634,74.400177 423.004730,84.831451 
	C422.329773,91.449295 415.630066,96.883362 408.325500,97.046959 
	C400.053864,97.232224 391.764252,97.383888 383.525360,98.067368 
	C373.070709,98.934647 366.092316,110.182503 366.017700,120.114365 
	C365.947632,129.441452 366.008881,138.769501 366.020508,148.810959 
	C366.028687,149.524796 366.163757,149.991119 366.163757,149.991119 
	C366.107178,150.985580 366.001038,151.980026 366.001068,152.974487 
	C366.002777,223.009644 366.012939,293.044800 366.025574,363.777649 
	C366.028778,364.475372 366.035950,364.960938 366.035950,364.960938 
	C366.024536,373.934387 366.003204,382.907867 366.003967,391.881317 
	C366.005341,407.657196 375.382080,416.987671 391.227325,416.994019 
	C396.711182,416.996216 402.243500,417.450378 407.666992,416.877380 
	C414.988708,416.103821 422.134155,422.730713 422.968170,428.975952 
	C424.315247,439.063324 420.984528,444.326233 411.004364,447.014954 
	C401.070374,447.016663 391.986938,447.022400 382.903534,447.028137 
	C370.458374,446.947968 360.248047,441.804779 351.267151,433.030823 
z"/>
<path fill="#C8E4FF" opacity="1.000000" stroke="none" 
	d="
M366.621735,149.993805 
	C366.163757,149.991119 366.028687,149.524796 366.032349,149.281921 
	C404.588989,149.085831 443.141968,149.132584 481.911194,149.567505 
	C443.778168,149.969254 405.428925,149.982864 366.621735,149.993805 
z"/>
<path fill="#38487D" opacity="1.000000" stroke="none" 
	d="
M410.820129,66.642685 
	C402.016724,66.978500 392.934723,66.985260 383.375549,66.982018 
	C385.732391,66.648537 388.564178,66.077118 391.400848,66.051949 
	C397.779785,65.995338 404.161133,66.209610 410.820129,66.642685 
z"/>
<path fill="#C8E4FF" opacity="1.000000" stroke="none" 
	d="
M366.500916,364.978638 
	C366.035950,364.960938 366.028778,364.475372 366.096252,364.242126 
	C404.500702,364.010742 442.837677,364.012604 481.651306,364.029114 
	C480.458435,364.362579 478.789215,364.957336 477.119141,364.959686 
	C440.401459,365.011475 403.683624,364.997650 366.500916,364.978638 
z"/>
<path fill="#37497D" opacity="1.000000" stroke="none" 
	d="
M383.180237,447.358856 
	C391.986938,447.022400 401.070374,447.016663 410.631653,447.020813 
	C407.944336,447.353394 404.781830,447.911469 401.613281,447.948425 
	C395.562988,448.019012 389.509277,447.792664 383.180237,447.358856 
z"/>
<path fill="#979FEF" opacity="1.000000" stroke="none" 
	d="
M187.000000,302.000000 
	C146.676437,301.999817 106.852859,301.991333 67.029297,302.008484 
	C61.072765,302.011047 56.400112,299.697968 53.243275,294.596802 
	C49.901985,289.197632 50.167320,283.748016 53.724762,278.649384 
	C56.979458,273.984680 61.636322,271.955353 67.424347,271.961151 
	C129.908966,272.023743 192.393677,272.000061 254.878357,272.000031 
	C260.543640,272.000031 266.209045,271.974487 271.874146,272.006500 
	C281.069519,272.058472 287.902039,278.410095 287.962738,286.918945 
	C288.022369,295.277954 280.991211,301.976685 271.979309,301.987244 
	C243.819565,302.020233 215.659775,301.999756 187.000000,302.000000 
z"/>
<path fill="#979FEF" opacity="1.000000" stroke="none" 
	d="
M216.000397,211.999390 
	C234.809372,211.999588 253.118469,211.985672 271.427551,212.005737 
	C281.115997,212.016342 287.921753,218.194031 287.963104,226.944641 
	C288.003479,235.493530 280.933716,241.985153 271.481262,241.993332 
	C248.012344,242.013626 224.543396,242.014450 201.074478,241.992767 
	C192.411758,241.984756 186.371170,237.381012 184.205765,229.252213 
	C182.244812,221.890915 190.299469,212.399109 199.023987,212.047699 
	C204.507919,211.826813 210.007812,212.001923 216.000397,211.999390 
z"/>
<path fill="#979FEF" opacity="1.000000" stroke="none" 
	d="
M62.075676,212.551605 
	C71.111771,212.261673 79.763168,212.048584 88.415222,212.016968 
	C104.912552,211.956680 121.410858,211.914795 137.907623,212.028137 
	C150.266342,212.113037 156.936279,221.473053 152.938492,232.834396 
	C151.085571,238.100204 146.003403,241.920761 139.859756,241.947845 
	C115.030602,242.057388 90.200310,242.066345 65.371284,241.942917 
	C58.614006,241.909317 52.241806,236.031799 51.122208,229.382965 
	C50.205215,223.937363 52.790134,215.757553 62.075676,212.551605 
z"/>
</svg>